<?xml version="1.0" encoding="UTF-8"?>
<svg id="Layer_1" xmlns="http://www.w3.org/2000/svg" version="1.1" viewBox="0 0 153.01 59.83">
  <!-- Generator: Adobe Illustrator 30.0.0, SVG Export Plug-In . SVG Version: 2.1.1 Build 123)  -->
  <defs>
    <style>
      .st0 {
        fill: #475faa;
      }

      .st1 {
        fill: #212e7e;
      }
    </style>
  </defs>
  <g>
    <g>
      <path class="st1" d="M111.42,50.14c2.31,0,3.44,1.28,3.49,2.92h-1.92c-.07-.83-.52-1.37-1.53-1.37-1.07,0-1.71.51-1.71,2s.61,2,1.68,2,1.52-.61,1.6-1.41h1.92c-.04,1.56-1.15,2.96-3.49,2.96-2.6,0-3.69-1.68-3.69-3.54s1.07-3.54,3.65-3.54Z"/>
      <path class="st1" d="M115.56,53.67c0-1.84,1.04-3.53,3.69-3.53s3.69,1.71,3.69,3.53-1.03,3.56-3.69,3.56-3.69-1.69-3.69-3.56ZM119.25,55.69c1.21,0,1.72-.52,1.72-2s-.51-2-1.72-2-1.71.52-1.71,2,.51,2,1.71,2Z"/>
      <path class="st1" d="M123.88,48.16h1.97v8.86h-1.97v-8.86Z"/>
      <path class="st1" d="M127.06,48.16h1.97v8.86h-1.97v-8.86Z"/>
      <path class="st1" d="M135.1,55.01h1.89c-.19,1.07-1.04,2.23-3.44,2.23-2.6,0-3.58-1.68-3.58-3.56s1.12-3.53,3.58-3.53,3.45,1.64,3.45,3.52c0,.2,0,.39-.03.53h-5.08c.12,1.27.75,1.68,1.69,1.68.87,0,1.32-.37,1.51-.87ZM131.91,53h3.21c-.07-1.01-.56-1.52-1.55-1.52s-1.51.39-1.67,1.52Z"/>
      <path class="st1" d="M145.04,50.36v6.4c0,2.04-1.03,3.08-3.73,3.08-2.28,0-3.41-1.03-3.5-2.52h1.93c.08.68.55,1.13,1.65,1.13s1.68-.41,1.68-1.47v-1.21c-.45.68-1.2,1.05-2.32,1.05-2.17,0-3.1-1.49-3.1-3.32s.93-3.34,3.1-3.34c1.12,0,1.87.4,2.32,1.08v-.88h1.97ZM143.07,53.53c0-1.27-.47-1.84-1.69-1.84s-1.76.51-1.76,1.84.51,1.84,1.76,1.84,1.69-.59,1.69-1.84Z"/>
      <path class="st1" d="M151.1,55.01h1.89c-.19,1.07-1.04,2.23-3.44,2.23-2.6,0-3.58-1.68-3.58-3.56s1.12-3.53,3.58-3.53,3.45,1.64,3.45,3.52c0,.2,0,.39-.03.53h-5.08c.12,1.27.75,1.68,1.69,1.68.87,0,1.32-.37,1.51-.87ZM147.92,53h3.21c-.07-1.01-.56-1.52-1.55-1.52s-1.51.39-1.67,1.52Z"/>
    </g>
    <g>
      <path class="st0" d="M14.6,50.36v6.66h-1.97v-1.28c-.41.89-1.16,1.49-2.36,1.49-1.75,0-2.52-1.05-2.52-2.8v-4.08h1.97v3.78c0,1.05.47,1.48,1.31,1.48.99,0,1.6-.73,1.6-2.24v-3.02h1.97Z"/>
      <path class="st0" d="M26.93,50.36l-1.76,6.66h-2.74l-1.35-4.61-1.33,4.61h-2.76l-1.76-6.66h2l1.28,5.2,1.63-5.2h2.05l1.63,5.18,1.27-5.18h1.85Z"/>
      <path class="st0" d="M27.19,55.25c0-1.07.47-1.76,2.19-2.05l1.57-.27c.61-.11.83-.28.83-.67,0-.47-.27-.77-1.16-.77s-1.33.36-1.36,1.04h-1.93c.05-1.43,1.23-2.4,3.25-2.4s3.01.87,3.01,2.28v2.88c0,.63.04,1.16.11,1.73h-1.72c-.07-.44-.11-.88-.11-1.43-.31.92-1.11,1.6-2.47,1.6s-2.21-.75-2.21-1.95ZM31.78,53.85v-.29c-.35.24-.68.33-1.09.43l-.56.13c-.71.17-.99.43-.99.93,0,.53.4.8.93.8,1.04,0,1.71-.76,1.71-2Z"/>
      <path class="st0" d="M34.7,48.16h2.15v1.32h-2.15v-1.32ZM34.79,50.36h1.97v6.66h-1.97v-6.66Z"/>
      <path class="st0" d="M7.21,55.45h-.91c-.16,0-.32-.08-.42-.2l-1.61-2.04,2.86-2.78v-.05h-2.35l-2.11,2.22c-.23.25-.47.56-.69.88v-5.3H0v8.85h1.97v-1.6l1.05-1.01,1.16,1.57c.48.65,1.24,1.03,2.05,1.03h.98v-1.57Z"/>
      <path class="st0" d="M38.72,54.62v-2.77h-1.21v-.94l2.82-2.74h.36v2.2h1.92v1.49h-1.92v3.29c0,.17.14.31.31.31h1.59v1.57h-1.42c-1.89,0-2.45-.81-2.45-2.4Z"/>
    </g>
    <g>
      <path class="st1" d="M57,55.01h1.89c-.19,1.07-1.04,2.23-3.44,2.23-2.6,0-3.58-1.68-3.58-3.56s1.12-3.53,3.58-3.53,3.45,1.64,3.45,3.52c0,.2,0,.39-.03.53h-5.08c.12,1.27.75,1.68,1.69,1.68.87,0,1.32-.37,1.51-.87ZM53.81,53h3.21c-.07-1.01-.56-1.52-1.55-1.52s-1.51.39-1.67,1.52Z"/>
      <path class="st1" d="M63.18,50.14c2.31,0,3.44,1.28,3.49,2.92h-1.92c-.07-.83-.52-1.37-1.53-1.37-1.07,0-1.71.51-1.71,2s.61,2,1.68,2,1.52-.61,1.6-1.41h1.92c-.04,1.56-1.15,2.96-3.49,2.96-2.6,0-3.69-1.68-3.69-3.54s1.07-3.54,3.65-3.54Z"/>
      <path class="st1" d="M74.46,52.93v4.09h-1.97v-3.78c0-1.07-.45-1.49-1.27-1.49-1.05,0-1.64.67-1.64,2.25v3.02h-1.97v-8.85h1.97v3.49c.43-.91,1.19-1.52,2.4-1.52,1.75,0,2.48,1.04,2.48,2.79Z"/>
      <path class="st1" d="M82.49,52.93v4.09h-1.97v-3.78c0-1.07-.45-1.49-1.27-1.49-1.05,0-1.64.67-1.64,2.25v3.02h-1.97v-6.66h1.97v1.31c.43-.91,1.19-1.52,2.4-1.52,1.75,0,2.48,1.04,2.48,2.79Z"/>
      <path class="st1" d="M83.57,48.16h2.15v1.32h-2.15v-1.32ZM83.67,50.36h1.97v6.66h-1.97v-6.66Z"/>
      <path class="st1" d="M90.18,50.14c2.31,0,3.44,1.28,3.49,2.92h-1.92c-.07-.83-.52-1.37-1.53-1.37-1.07,0-1.71.51-1.71,2s.61,2,1.68,2,1.52-.61,1.6-1.41h1.92c-.04,1.56-1.15,2.96-3.49,2.96-2.6,0-3.69-1.68-3.69-3.54s1.07-3.54,3.65-3.54Z"/>
      <path class="st1" d="M94.36,55.25c0-1.07.47-1.76,2.19-2.05l1.57-.27c.61-.11.83-.28.83-.67,0-.47-.27-.77-1.16-.77s-1.33.36-1.36,1.04h-1.93c.05-1.43,1.23-2.4,3.25-2.4s3.01.87,3.01,2.28v2.88c0,.63.04,1.16.11,1.73h-1.72c-.07-.44-.11-.88-.11-1.43-.31.92-1.11,1.6-2.47,1.6s-2.21-.75-2.21-1.95ZM98.95,53.85v-.29c-.35.24-.68.33-1.09.43l-.56.13c-.71.17-.99.43-.99.93,0,.53.4.8.93.8,1.04,0,1.71-.76,1.71-2Z"/>
      <path class="st1" d="M101.97,48.17h1.97v8.85h-1.97v-8.85Z"/>
      <path class="st1" d="M47.61,54.62v-2.77h-1.21v-.94l2.82-2.74h.36v2.2h1.92v1.49h-1.92v3.29c0,.17.14.31.31.31h1.59v1.57h-1.42c-1.89,0-2.45-.81-2.45-2.4Z"/>
    </g>
  </g>
  <g>
    <path class="st1" d="M37.87,28.55v-12.24h-5.36v-4.18L44.99,0h1.59v9.71h8.48v6.59h-8.48v14.54c0,.75.61,1.36,1.36,1.36h7.12v6.95h-6.36c-8.36,0-10.83-3.59-10.83-10.59Z"/>
    <path class="st1" d="M71.97,33.52c-3.45,0-6.53-2.14-6.83-6.61h14.19s0,0,0,0h8.33c.12-.65.12-1.47.12-2.35,0-8.3-4.12-14.81-15.24-14.81s-15.83,6.09-15.83,14.63,4.36,14.89,15.83,14.89c8.93,0,13.01-3.64,14.57-7.6.05-.14.1-.28.15-.42h-8.98s-.1,2.28-6.29,2.28ZM72.64,15.63c4.36,0,6.53,2.24,6.83,6.71h-14.19c.71-5,3.18-6.71,7.36-6.71Z"/>
    <path class="st1" d="M105.59,32.23c-4.71,0-7.42-1.15-7.42-7.8s2.83-7.86,7.53-7.86c4.31,0,6.33,2.24,6.73,5.68h8.49c-.4-7.05-5.4-12.5-15.4-12.5-11.42,0-16.13,6.45-16.13,14.69s4.83,14.63,16.3,14.63c10.08,0,14.97-5.56,15.4-12.21h-8.52c-.51,3.25-1.18,5.38-6.99,5.38Z"/>
    <path class="st1" d="M153.01,22.04v17.1h-8.71v-15.75c0-4.71-2-6.59-5.59-6.59-4.65,0-7.24,2.94-7.24,9.95v12.39h-8.71V0h8.71v16.45c1.88-4,5.24-6.71,10.59-6.71,7.71,0,10.95,4.59,10.95,12.3Z"/>
    <path class="st0" d="M32.54,32.2h-4.59c-.73,0-1.41-.33-1.86-.9l-7.14-9.03,12.64-12.29v-.24h-10.41l-9.35,9.82c-1,1.12-2.06,2.47-3.06,3.88V0H.07v39.14h8.7v-7.06l4.65-4.47,5.15,6.96c2.12,2.87,5.48,4.57,9.06,4.57h4.91v-6.95Z"/>
  </g>
</svg>