<?xml version="1.0" encoding="UTF-8"?>
<svg id="Layer_1" xmlns="http://www.w3.org/2000/svg" version="1.1" viewBox="0 0 277.9 98.47">
  <!-- Generator: Adobe Illustrator 30.0.0, SVG Export Plug-In . SVG Version: 2.1.1 Build 123)  -->
  <defs>
    <style>
      .st0 {
        fill: #b7c1e2;
      }

      .st1 {
        fill: #fff;
      }
    </style>
  </defs>
  <g>
    <path class="st1" d="M67.11,50.68v-21.73h-9.51v-7.42L79.74,0h2.83v17.24h15.05v11.7h-15.05v25.81c0,1.33,1.08,2.41,2.41,2.41h11.18v12.33h-9.82c-14.84,0-19.23-6.37-19.23-18.81Z"/>
    <path class="st1" d="M140.74,53.71h14.84c-1.46,8.36-8.15,17.45-26.96,17.45-20.38,0-28.11-13.17-28.11-27.9s8.78-27.69,28.11-27.69,27.06,12.85,27.06,27.58c0,1.57,0,3.03-.21,4.18h-39.81c.94,9.93,5.85,13.17,13.27,13.17,6.79,0,10.34-2.93,11.81-6.79ZM115.77,37.93h25.18c-.52-7.94-4.39-11.91-12.12-11.91s-11.81,3.03-13.06,11.91Z"/>
    <path class="st1" d="M189.18,15.57c18.08,0,26.96,10.03,27.38,22.88h-15.05c-.52-6.48-4.07-10.76-12.02-10.76-8.36,0-13.37,3.97-13.37,15.67s4.81,15.67,13.17,15.67,11.91-4.81,12.54-11.08h15.05c-.31,12.23-8.99,23.2-27.38,23.2-20.37,0-28.94-13.17-28.94-27.79s8.36-27.79,28.63-27.79Z"/>
    <path class="st1" d="M277.64,37.41v32.08h-15.46v-29.68c0-8.36-3.55-11.7-9.93-11.7-8.25,0-12.85,5.22-12.85,17.66v23.72h-15.46V0h15.46v27.48c3.34-7.11,9.3-11.91,18.81-11.91,13.69,0,19.44,8.15,19.44,21.84Z"/>
    <path class="st0" d="M60.36,57.16h-10.87c-1.29,0-2.51-.59-3.3-1.6l-12.68-16.03,22.44-21.82v-.42h-18.48l-16.6,17.43c-1.77,1.98-3.65,4.38-5.43,6.89V0H0v69.49h15.45v-12.53l8.25-7.93,9.14,12.36c3.77,5.1,9.74,8.1,16.08,8.1h11.45v-12.33Z"/>
  </g>
  <g>
    <g>
      <path class="st1" d="M202.37,80.88c4.19,0,6.24,2.32,6.34,5.3h-3.49c-.12-1.5-.94-2.49-2.78-2.49-1.94,0-3.1.92-3.1,3.63s1.11,3.63,3.05,3.63,2.76-1.11,2.9-2.57h3.49c-.07,2.83-2.08,5.37-6.34,5.37-4.72,0-6.7-3.05-6.7-6.44s1.94-6.44,6.63-6.44Z"/>
      <path class="st1" d="M209.88,87.29c0-3.34,1.89-6.41,6.7-6.41s6.7,3.1,6.7,6.41-1.86,6.46-6.7,6.46-6.7-3.07-6.7-6.46ZM216.58,90.94c2.2,0,3.12-.94,3.12-3.63s-.92-3.63-3.12-3.63-3.1.94-3.1,3.63.92,3.63,3.1,3.63Z"/>
      <path class="st1" d="M224.99,77.27h3.58v16.09h-3.58v-16.09Z"/>
      <path class="st1" d="M230.77,77.27h3.58v16.09h-3.58v-16.09Z"/>
      <path class="st1" d="M245.37,89.71h3.44c-.34,1.94-1.89,4.04-6.24,4.04-4.72,0-6.51-3.05-6.51-6.46s2.03-6.41,6.51-6.41,6.27,2.98,6.27,6.39c0,.36,0,.7-.05.97h-9.22c.22,2.3,1.36,3.05,3.07,3.05,1.57,0,2.4-.68,2.73-1.57ZM239.58,86.06h5.83c-.12-1.84-1.02-2.76-2.81-2.76s-2.74.7-3.03,2.76Z"/>
      <path class="st1" d="M263.42,81.26v11.62c0,3.7-1.86,5.59-6.78,5.59-4.14,0-6.2-1.86-6.37-4.57h3.51c.14,1.23.99,2.06,3,2.06s3.05-.75,3.05-2.66v-2.2c-.82,1.23-2.18,1.91-4.21,1.91-3.94,0-5.64-2.71-5.64-6.03s1.69-6.07,5.64-6.07c2.03,0,3.39.73,4.21,1.96v-1.6h3.58ZM259.84,87.02c0-2.3-.85-3.34-3.07-3.34s-3.19.92-3.19,3.34.92,3.34,3.19,3.34,3.07-1.06,3.07-3.34Z"/>
      <path class="st1" d="M274.44,89.71h3.44c-.34,1.94-1.89,4.04-6.24,4.04-4.72,0-6.51-3.05-6.51-6.46s2.03-6.41,6.51-6.41,6.27,2.98,6.27,6.39c0,.36,0,.7-.05.97h-9.22c.22,2.3,1.36,3.05,3.07,3.05,1.57,0,2.4-.68,2.73-1.57ZM268.65,86.06h5.83c-.12-1.84-1.02-2.76-2.81-2.76s-2.74.7-3.03,2.76Z"/>
    </g>
    <g>
      <path class="st0" d="M26.52,81.26v12.1h-3.58v-2.32c-.75,1.62-2.11,2.71-4.28,2.71-3.17,0-4.57-1.91-4.57-5.08v-7.41h3.58v6.87c0,1.91.85,2.69,2.37,2.69,1.79,0,2.9-1.33,2.9-4.07v-5.49h3.58Z"/>
      <path class="st0" d="M48.92,81.26l-3.19,12.1h-4.99l-2.44-8.37-2.42,8.37h-5.01l-3.19-12.1h3.63l2.32,9.44,2.95-9.44h3.73l2.95,9.41,2.3-9.41h3.36Z"/>
      <path class="st0" d="M49.39,90.15c0-1.94.85-3.19,3.97-3.73l2.86-.48c1.11-.19,1.5-.51,1.5-1.21,0-.85-.48-1.4-2.11-1.4s-2.42.65-2.47,1.89h-3.51c.1-2.59,2.23-4.36,5.91-4.36s5.47,1.57,5.47,4.14v5.23c0,1.14.07,2.11.19,3.15h-3.12c-.12-.8-.19-1.6-.19-2.59-.56,1.67-2.01,2.9-4.48,2.9s-4.02-1.36-4.02-3.53ZM57.71,87.61v-.53c-.63.44-1.23.61-1.98.77l-1.02.24c-1.28.31-1.79.77-1.79,1.69,0,.97.73,1.45,1.69,1.45,1.89,0,3.1-1.38,3.1-3.63Z"/>
      <path class="st0" d="M63.01,77.27h3.9v2.4h-3.9v-2.4ZM63.18,81.26h3.58v12.1h-3.58v-12.1Z"/>
      <path class="st0" d="M13.1,90.51h-1.65c-.3,0-.58-.14-.76-.37l-2.93-3.71,5.19-5.05v-.1h-4.27l-3.84,4.03c-.41.46-.85,1.01-1.26,1.59v-9.63H0v16.08h3.57v-2.9l1.91-1.84,2.11,2.86c.87,1.18,2.25,1.87,3.72,1.87h1.78v-2.85Z"/>
      <path class="st0" d="M70.32,89.01v-5.03h-2.2v-1.72l5.12-4.98h.65v3.99h3.48v2.71h-3.48v5.97c0,.31.25.56.56.56h2.89v2.85h-2.57c-3.43,0-4.45-1.47-4.45-4.35Z"/>
    </g>
    <g>
      <path class="st1" d="M103.52,89.71h3.44c-.34,1.94-1.89,4.04-6.24,4.04-4.72,0-6.51-3.05-6.51-6.46s2.03-6.41,6.51-6.41,6.27,2.98,6.27,6.39c0,.36,0,.7-.05.97h-9.22c.22,2.3,1.36,3.05,3.07,3.05,1.57,0,2.4-.68,2.73-1.57ZM97.74,86.06h5.83c-.12-1.84-1.02-2.76-2.81-2.76s-2.74.7-3.03,2.76Z"/>
      <path class="st1" d="M114.74,80.88c4.19,0,6.24,2.32,6.34,5.3h-3.49c-.12-1.5-.94-2.49-2.78-2.49-1.94,0-3.1.92-3.1,3.63s1.11,3.63,3.05,3.63,2.76-1.11,2.9-2.57h3.49c-.07,2.83-2.08,5.37-6.34,5.37-4.72,0-6.7-3.05-6.7-6.44s1.94-6.44,6.63-6.44Z"/>
      <path class="st1" d="M135.23,85.93v7.43h-3.58v-6.87c0-1.94-.82-2.71-2.3-2.71-1.91,0-2.98,1.21-2.98,4.09v5.49h-3.58v-16.07h3.58v6.35c.77-1.65,2.15-2.76,4.36-2.76,3.17,0,4.5,1.89,4.5,5.06Z"/>
      <path class="st1" d="M149.82,85.93v7.43h-3.58v-6.87c0-1.94-.82-2.71-2.3-2.71-1.91,0-2.98,1.21-2.98,4.09v5.49h-3.58v-12.1h3.58v2.37c.77-1.65,2.15-2.76,4.36-2.76,3.17,0,4.5,1.89,4.5,5.06Z"/>
      <path class="st1" d="M151.79,77.27h3.9v2.4h-3.9v-2.4ZM151.96,81.26h3.58v12.1h-3.58v-12.1Z"/>
      <path class="st1" d="M163.79,80.88c4.19,0,6.24,2.32,6.34,5.3h-3.49c-.12-1.5-.94-2.49-2.78-2.49-1.94,0-3.1.92-3.1,3.63s1.11,3.63,3.05,3.63,2.76-1.11,2.9-2.57h3.49c-.07,2.83-2.08,5.37-6.34,5.37-4.72,0-6.7-3.05-6.7-6.44s1.94-6.44,6.63-6.44Z"/>
      <path class="st1" d="M171.38,90.15c0-1.94.85-3.19,3.97-3.73l2.86-.48c1.11-.19,1.5-.51,1.5-1.21,0-.85-.48-1.4-2.11-1.4s-2.42.65-2.47,1.89h-3.51c.1-2.59,2.23-4.36,5.91-4.36s5.47,1.57,5.47,4.14v5.23c0,1.14.07,2.11.19,3.15h-3.12c-.12-.8-.19-1.6-.19-2.59-.56,1.67-2.01,2.9-4.48,2.9s-4.02-1.36-4.02-3.53ZM179.71,87.6v-.53c-.63.44-1.23.61-1.98.77l-1.02.24c-1.28.31-1.79.77-1.79,1.69,0,.97.73,1.45,1.69,1.45,1.89,0,3.1-1.38,3.1-3.63Z"/>
      <path class="st1" d="M185.19,77.29h3.58v16.07h-3.58v-16.07Z"/>
      <path class="st1" d="M86.47,89.01v-5.03h-2.2v-1.72l5.12-4.98h.65v3.99h3.48v2.71h-3.48v5.97c0,.31.25.56.56.56h2.89v2.85h-2.57c-3.43,0-4.45-1.47-4.45-4.35Z"/>
    </g>
  </g>
</svg>